<svg width="574" height="255" viewBox="0 0 574 255" fill="none" xmlns="http://www.w3.org/2000/svg">
<path d="M45.825 53V2H36.15V23.6H16.05V1.625L6.375 2V53H16.05V31.4H36.15V53H45.825ZM59.8717 27.05C61.2717 26.4 62.9717 25.85 64.9717 25.4C66.9717 24.9 68.7967 24.65 70.4467 24.65C72.2467 24.65 73.6467 25.175 74.6467 26.225C75.6967 27.225 76.2467 28.65 76.2967 30.5H69.1717C64.9717 30.5 61.6217 31.525 59.1217 33.575C56.6217 35.575 55.3717 38.425 55.3717 42.125C55.3717 45.725 56.4717 48.6 58.6717 50.75C60.8717 52.85 64.1467 53.9 68.4967 53.9C71.8467 53.9 75.0467 52.3 78.0967 49.1L79.7467 53H86.1217V29.075C86.1217 26.525 85.3967 24.225 83.9467 22.175C82.5467 20.125 80.6467 18.525 78.2467 17.375C75.8467 16.225 73.1967 15.65 70.2967 15.65C68.5967 15.65 66.3217 16 63.4717 16.7C60.6217 17.35 58.5467 18.1 57.2467 18.95L59.8717 27.05ZM63.6967 42.125C63.6967 40.725 64.1717 39.525 65.1217 38.525C66.1217 37.525 67.4217 37.025 69.0217 37.025H76.3717V42.575C73.9217 44.975 71.2467 46.175 68.3467 46.175C66.9967 46.175 65.8717 45.775 64.9717 44.975C64.1217 44.175 63.6967 43.225 63.6967 42.125ZM98.8664 11.45C100.416 11.45 101.716 10.925 102.766 9.875C103.866 8.825 104.416 7.525 104.416 5.975C104.416 4.425 103.866 3.125 102.766 2.075C101.716 1.025 100.416 0.499996 98.8664 0.499996C97.3664 0.499996 96.0914 1.025 95.0414 2.075C93.9914 3.125 93.4664 4.425 93.4664 5.975C93.4664 7.525 93.9914 8.825 95.0414 9.875C96.0914 10.925 97.3664 11.45 98.8664 11.45ZM103.816 53V16.625H94.0664V53H103.816ZM121.834 30.8C123.934 28.95 126.184 27.425 128.584 26.225C131.034 25.025 133.084 24.425 134.734 24.425L132.784 16.625C130.984 16.625 128.909 17.25 126.559 18.5C124.209 19.75 122.159 21.15 120.409 22.7L117.184 16.625H112.084V53H121.834V30.8ZM137.523 50.15C139.073 51.35 141.098 52.275 143.598 52.925C146.098 53.575 148.273 53.9 150.123 53.9C155.023 53.9 158.773 52.925 161.373 50.975C163.973 48.975 165.273 46.15 165.273 42.5C165.273 39.6 164.098 37.15 161.748 35.15C159.398 33.15 156.448 31.5 152.898 30.2C151.048 29.55 149.623 28.975 148.623 28.475C147.673 27.925 147.198 27.325 147.198 26.675C147.198 25.825 147.598 25.1 148.398 24.5C149.248 23.85 150.298 23.525 151.548 23.525C153.148 23.525 154.673 23.725 156.123 24.125C157.623 24.525 159.323 25.15 161.223 26L164.148 19.475C162.448 18.325 160.373 17.4 157.923 16.7C155.473 16 153.398 15.65 151.698 15.65C147.348 15.65 143.898 16.65 141.348 18.65C138.798 20.6 137.523 23.3 137.523 26.75C137.523 29.5 138.673 31.775 140.973 33.575C143.273 35.375 146.148 36.85 149.598 38C153.848 39.3 155.973 40.925 155.973 42.875C155.973 43.875 155.348 44.65 154.098 45.2C152.848 45.75 151.473 46.025 149.973 46.025C147.323 46.025 144.148 45.2 140.448 43.55L137.523 50.15ZM182.439 16.7V6.35L172.764 8.075V16.7H167.889V24.2H172.764V41.375C172.764 45.525 174.039 48.75 176.589 51.05C179.139 53.35 182.689 54.5 187.239 54.5C188.439 54.5 189.764 54.275 191.214 53.825C192.714 53.375 193.839 52.85 194.589 52.25L191.739 45.2C190.389 45.85 189.064 46.175 187.764 46.175C186.064 46.175 184.739 45.575 183.789 44.375C182.889 43.175 182.439 41.6 182.439 39.65V24.2H192.039L189.039 16.7H182.439ZM207.253 54.725C206.703 56.225 205.603 57.475 203.953 58.475C202.353 59.475 200.278 60.525 197.728 61.625L201.178 69.65C204.528 68.85 207.628 67.375 210.478 65.225C213.328 63.125 215.303 60.65 216.403 57.8L232.678 16.625H222.403L214.453 38.675L206.053 15.275L196.453 18.125L208.978 50.45L207.253 54.725ZM247.973 53V0.0499977L238.298 0.874996V53H247.973ZM289.582 34.7C289.582 31.15 288.982 27.95 287.782 25.1C286.582 22.2 284.732 19.9 282.232 18.2C279.732 16.5 276.657 15.65 273.007 15.65C269.257 15.65 266.007 16.45 263.257 18.05C260.507 19.6 258.382 21.825 256.882 24.725C255.432 27.625 254.707 31 254.707 34.85C254.707 40.8 256.482 45.475 260.032 48.875C263.632 52.225 268.882 53.9 275.782 53.9C278.732 53.9 281.282 53.525 283.432 52.775C285.582 51.975 287.582 50.85 289.432 49.4L286.582 42.35C284.732 43.4 283.007 44.2 281.407 44.75C279.807 45.3 278.007 45.575 276.007 45.575C272.557 45.575 269.982 44.9 268.282 43.55C266.632 42.2 265.557 40.25 265.057 37.7H289.582V34.7ZM265.132 31.175C265.532 28.825 266.407 27.05 267.757 25.85C269.107 24.6 270.782 23.975 272.782 23.975C274.782 23.975 276.407 24.575 277.657 25.775C278.957 26.975 279.857 28.775 280.357 31.175H265.132Z" fill="#FBB400"/>
<path d="M314.651 53H324.326V33.65H333.476L344.276 53H354.626L342.101 31.1C344.751 29.8 346.851 28 348.401 25.7C350.001 23.4 350.801 20.725 350.801 17.675C350.801 12.575 348.901 8.7 345.101 6.05C341.351 3.35 336.526 2 330.626 2H314.651V53ZM330.326 10.1C337.126 10.1 340.526 12.775 340.526 18.125C340.526 20.725 339.601 22.65 337.751 23.9C335.951 25.1 333.526 25.7 330.476 25.7H324.326V10.1H330.326ZM392.121 34.7C392.121 31.15 391.521 27.95 390.321 25.1C389.121 22.2 387.271 19.9 384.771 18.2C382.271 16.5 379.196 15.65 375.546 15.65C371.796 15.65 368.546 16.45 365.796 18.05C363.046 19.6 360.921 21.825 359.421 24.725C357.971 27.625 357.246 31 357.246 34.85C357.246 40.8 359.021 45.475 362.571 48.875C366.171 52.225 371.421 53.9 378.321 53.9C381.271 53.9 383.821 53.525 385.971 52.775C388.121 51.975 390.121 50.85 391.971 49.4L389.121 42.35C387.271 43.4 385.546 44.2 383.946 44.75C382.346 45.3 380.546 45.575 378.546 45.575C375.096 45.575 372.521 44.9 370.821 43.55C369.171 42.2 368.096 40.25 367.596 37.7H392.121V34.7ZM367.671 31.175C368.071 28.825 368.946 27.05 370.296 25.85C371.646 24.6 373.321 23.975 375.321 23.975C377.321 23.975 378.946 24.575 380.196 25.775C381.496 26.975 382.396 28.775 382.896 31.175H367.671ZM400.495 24.2V53H410.245V24.2H420.22L417.145 16.7H410.245V15.275C410.245 13.275 410.645 11.7 411.445 10.55C412.245 9.35 413.47 8.75 415.12 8.75C416.17 8.75 417.52 9.075 419.17 9.725L421.945 2.675C421.145 2.025 420.02 1.475 418.57 1.025C417.12 0.574998 415.82 0.349998 414.67 0.349998C410.22 0.349998 406.745 1.55 404.245 3.95C401.745 6.35 400.495 9.675 400.495 13.925V16.7H394.87V24.2H400.495ZM436.498 53V0.0499977L426.823 0.874996V53H436.498ZM478.107 34.7C478.107 31.15 477.507 27.95 476.307 25.1C475.107 22.2 473.257 19.9 470.757 18.2C468.257 16.5 465.182 15.65 461.532 15.65C457.782 15.65 454.532 16.45 451.782 18.05C449.032 19.6 446.907 21.825 445.407 24.725C443.957 27.625 443.232 31 443.232 34.85C443.232 40.8 445.007 45.475 448.557 48.875C452.157 52.225 457.407 53.9 464.307 53.9C467.257 53.9 469.807 53.525 471.957 52.775C474.107 51.975 476.107 50.85 477.957 49.4L475.107 42.35C473.257 43.4 471.532 44.2 469.932 44.75C468.332 45.3 466.532 45.575 464.532 45.575C461.082 45.575 458.507 44.9 456.807 43.55C455.157 42.2 454.082 40.25 453.582 37.7H478.107V34.7ZM453.657 31.175C454.057 28.825 454.932 27.05 456.282 25.85C457.632 24.6 459.307 23.975 461.307 23.975C463.307 23.975 464.932 24.575 466.182 25.775C467.482 26.975 468.382 28.775 468.882 31.175H453.657ZM513.781 19.475C512.081 18.325 509.981 17.4 507.481 16.7C504.981 16 502.881 15.65 501.181 15.65C497.281 15.65 493.856 16.45 490.906 18.05C488.006 19.6 485.756 21.825 484.156 24.725C482.606 27.625 481.831 31 481.831 34.85C481.831 38.7 482.606 42.075 484.156 44.975C485.756 47.825 488.006 50.025 490.906 51.575C493.856 53.125 497.281 53.9 501.181 53.9C503.031 53.9 505.206 53.575 507.706 52.925C510.206 52.275 512.231 51.35 513.781 50.15L511.006 43.1C509.106 43.95 507.406 44.575 505.906 44.975C504.406 45.375 502.856 45.575 501.256 45.575C498.506 45.575 496.256 44.575 494.506 42.575C492.756 40.575 491.881 38 491.881 34.85C491.881 31.7 492.756 29.1 494.506 27.05C496.306 25 498.556 23.975 501.256 23.975C502.856 23.975 504.406 24.175 505.906 24.575C507.406 24.975 509.106 25.6 511.006 26.45L513.781 19.475ZM530.632 16.7V6.35L520.957 8.075V16.7H516.082V24.2H520.957V41.375C520.957 45.525 522.232 48.75 524.782 51.05C527.332 53.35 530.882 54.5 535.432 54.5C536.632 54.5 537.957 54.275 539.407 53.825C540.907 53.375 542.032 52.85 542.782 52.25L539.932 45.2C538.582 45.85 537.257 46.175 535.957 46.175C534.257 46.175 532.932 45.575 531.982 44.375C531.082 43.175 530.632 41.6 530.632 39.65V24.2H540.232L537.232 16.7H530.632ZM545.921 50.15C547.471 51.35 549.496 52.275 551.996 52.925C554.496 53.575 556.671 53.9 558.521 53.9C563.421 53.9 567.171 52.925 569.771 50.975C572.371 48.975 573.671 46.15 573.671 42.5C573.671 39.6 572.496 37.15 570.146 35.15C567.796 33.15 564.846 31.5 561.296 30.2C559.446 29.55 558.021 28.975 557.021 28.475C556.071 27.925 555.596 27.325 555.596 26.675C555.596 25.825 555.996 25.1 556.796 24.5C557.646 23.85 558.696 23.525 559.946 23.525C561.546 23.525 563.071 23.725 564.521 24.125C566.021 24.525 567.721 25.15 569.621 26L572.546 19.475C570.846 18.325 568.771 17.4 566.321 16.7C563.871 16 561.796 15.65 560.096 15.65C555.746 15.65 552.296 16.65 549.746 18.65C547.196 20.6 545.921 23.3 545.921 26.75C545.921 29.5 547.071 31.775 549.371 33.575C551.671 35.375 554.546 36.85 557.996 38C562.246 39.3 564.371 40.925 564.371 42.875C564.371 43.875 563.746 44.65 562.496 45.2C561.246 45.75 559.871 46.025 558.371 46.025C555.721 46.025 552.546 45.2 548.846 43.55L545.921 50.15ZM42 102H0.75V109.65H16.275V153H26.1V109.65H43.575L42 102ZM71.1615 115.425C75.7615 115.425 78.9865 116.725 80.8365 119.325C82.6865 121.925 83.6115 125.55 83.6115 130.2V153H73.8615V130.65C73.8615 128.4 73.3865 126.65 72.4365 125.4C71.5365 124.15 70.2615 123.525 68.6115 123.525C66.9115 123.525 65.3115 123.925 63.8115 124.725C62.3115 125.475 60.6615 126.5 58.8615 127.8V153H49.1865V100.875L58.8615 100.05V119.4C60.9115 118.15 63.0365 117.175 65.2365 116.475C67.4365 115.775 69.4115 115.425 71.1615 115.425ZM124.201 134.7C124.201 131.15 123.601 127.95 122.401 125.1C121.201 122.2 119.351 119.9 116.851 118.2C114.351 116.5 111.276 115.65 107.626 115.65C103.876 115.65 100.626 116.45 97.8762 118.05C95.1262 119.6 93.0012 121.825 91.5012 124.725C90.0512 127.625 89.3262 131 89.3262 134.85C89.3262 140.8 91.1012 145.475 94.6512 148.875C98.2512 152.225 103.501 153.9 110.401 153.9C113.351 153.9 115.901 153.525 118.051 152.775C120.201 151.975 122.201 150.85 124.051 149.4L121.201 142.35C119.351 143.4 117.626 144.2 116.026 144.75C114.426 145.3 112.626 145.575 110.626 145.575C107.176 145.575 104.601 144.9 102.901 143.55C101.251 142.2 100.176 140.25 99.6762 137.7H124.201V134.7ZM99.7512 131.175C100.151 128.825 101.026 127.05 102.376 125.85C103.726 124.6 105.401 123.975 107.401 123.975C109.401 123.975 111.026 124.575 112.276 125.775C113.576 126.975 114.476 128.775 114.976 131.175H99.7512ZM158.946 135.225H164.571C168.321 135.225 171.771 134.625 174.921 133.425C178.071 132.175 180.596 130.275 182.496 127.725C184.446 125.175 185.421 122.05 185.421 118.35C185.421 112.8 183.546 108.7 179.796 106.05C176.096 103.35 171.246 102 165.246 102H149.271V153H158.946V135.225ZM164.946 110.1C168.296 110.1 170.821 110.8 172.521 112.2C174.271 113.55 175.146 115.8 175.146 118.95C174.946 121.7 173.971 123.775 172.221 125.175C170.471 126.525 168.096 127.2 165.096 127.2H158.946V110.1H164.946ZM224.03 134.7C224.03 131.15 223.43 127.95 222.23 125.1C221.03 122.2 219.18 119.9 216.68 118.2C214.18 116.5 211.105 115.65 207.455 115.65C203.705 115.65 200.455 116.45 197.705 118.05C194.955 119.6 192.83 121.825 191.33 124.725C189.88 127.625 189.155 131 189.155 134.85C189.155 140.8 190.93 145.475 194.48 148.875C198.08 152.225 203.33 153.9 210.23 153.9C213.18 153.9 215.73 153.525 217.88 152.775C220.03 151.975 222.03 150.85 223.88 149.4L221.03 142.35C219.18 143.4 217.455 144.2 215.855 144.75C214.255 145.3 212.455 145.575 210.455 145.575C207.005 145.575 204.43 144.9 202.73 143.55C201.08 142.2 200.005 140.25 199.505 137.7H224.03V134.7ZM199.58 131.175C199.98 128.825 200.855 127.05 202.205 125.85C203.555 124.6 205.23 123.975 207.23 123.975C209.23 123.975 210.855 124.575 212.105 125.775C213.405 126.975 214.305 128.775 214.805 131.175H199.58ZM239.754 130.8C241.854 128.95 244.104 127.425 246.504 126.225C248.954 125.025 251.004 124.425 252.654 124.425L250.704 116.625C248.904 116.625 246.829 117.25 244.479 118.5C242.129 119.75 240.079 121.15 238.329 122.7L235.104 116.625H230.004V153H239.754V130.8ZM255.443 150.15C256.993 151.35 259.018 152.275 261.518 152.925C264.018 153.575 266.193 153.9 268.043 153.9C272.943 153.9 276.693 152.925 279.293 150.975C281.893 148.975 283.193 146.15 283.193 142.5C283.193 139.6 282.018 137.15 279.668 135.15C277.318 133.15 274.368 131.5 270.818 130.2C268.968 129.55 267.543 128.975 266.543 128.475C265.593 127.925 265.118 127.325 265.118 126.675C265.118 125.825 265.518 125.1 266.318 124.5C267.168 123.85 268.218 123.525 269.468 123.525C271.068 123.525 272.593 123.725 274.043 124.125C275.543 124.525 277.243 125.15 279.143 126L282.068 119.475C280.368 118.325 278.293 117.4 275.843 116.7C273.393 116 271.318 115.65 269.618 115.65C265.268 115.65 261.818 116.65 259.268 118.65C256.718 120.6 255.443 123.3 255.443 126.75C255.443 129.5 256.593 131.775 258.893 133.575C261.193 135.375 264.068 136.85 267.518 138C271.768 139.3 273.893 140.925 273.893 142.875C273.893 143.875 273.268 144.65 272.018 145.2C270.768 145.75 269.393 146.025 267.893 146.025C265.243 146.025 262.068 145.2 258.368 143.55L255.443 150.15ZM325.784 134.7C325.784 138.55 324.984 141.925 323.384 144.825C321.784 147.725 319.509 149.975 316.559 151.575C313.659 153.125 310.259 153.9 306.359 153.9C302.459 153.9 299.034 153.125 296.084 151.575C293.184 150.025 290.934 147.825 289.334 144.975C287.734 142.075 286.934 138.7 286.934 134.85C286.934 131 287.734 127.625 289.334 124.725C290.934 121.825 293.184 119.6 296.084 118.05C299.034 116.45 302.459 115.65 306.359 115.65C310.259 115.65 313.659 116.425 316.559 117.975C319.509 119.525 321.784 121.75 323.384 124.65C324.984 127.5 325.784 130.85 325.784 134.7ZM306.359 145.575C309.059 145.575 311.284 144.55 313.034 142.5C314.834 140.45 315.734 137.85 315.734 134.7C315.734 131.55 314.859 128.975 313.109 126.975C311.359 124.975 309.109 123.975 306.359 123.975C303.659 123.975 301.409 125 299.609 127.05C297.859 129.1 296.984 131.7 296.984 134.85C296.984 138 297.859 140.575 299.609 142.575C301.359 144.575 303.609 145.575 306.359 145.575ZM341.561 127.8C343.361 126.5 345.011 125.475 346.511 124.725C348.011 123.925 349.611 123.525 351.311 123.525C352.961 123.525 354.236 124.15 355.136 125.4C356.086 126.65 356.561 128.4 356.561 130.65V153H366.311V130.2C366.311 125.55 365.386 121.925 363.536 119.325C361.686 116.725 358.461 115.425 353.861 115.425C351.861 115.425 349.586 115.875 347.036 116.775C344.486 117.675 342.086 118.925 339.836 120.525L338.186 116.625H331.811V153H341.561V127.8ZM377.816 127.05C379.216 126.4 380.916 125.85 382.916 125.4C384.916 124.9 386.741 124.65 388.391 124.65C390.191 124.65 391.591 125.175 392.591 126.225C393.641 127.225 394.191 128.65 394.241 130.5H387.116C382.916 130.5 379.566 131.525 377.066 133.575C374.566 135.575 373.316 138.425 373.316 142.125C373.316 145.725 374.416 148.6 376.616 150.75C378.816 152.85 382.091 153.9 386.441 153.9C389.791 153.9 392.991 152.3 396.041 149.1L397.691 153H404.066V129.075C404.066 126.525 403.341 124.225 401.891 122.175C400.491 120.125 398.591 118.525 396.191 117.375C393.791 116.225 391.141 115.65 388.241 115.65C386.541 115.65 384.266 116 381.416 116.7C378.566 117.35 376.491 118.1 375.191 118.95L377.816 127.05ZM381.641 142.125C381.641 140.725 382.116 139.525 383.066 138.525C384.066 137.525 385.366 137.025 386.966 137.025H394.316V142.575C391.866 144.975 389.191 146.175 386.291 146.175C384.941 146.175 383.816 145.775 382.916 144.975C382.066 144.175 381.641 143.225 381.641 142.125ZM422.436 153V100.05L412.761 100.875V153H422.436ZM436.22 111.45C437.77 111.45 439.07 110.925 440.12 109.875C441.22 108.825 441.77 107.525 441.77 105.975C441.77 104.425 441.22 103.125 440.12 102.075C439.07 101.025 437.77 100.5 436.22 100.5C434.72 100.5 433.445 101.025 432.395 102.075C431.345 103.125 430.82 104.425 430.82 105.975C430.82 107.525 431.345 108.825 432.395 109.875C433.445 110.925 434.72 111.45 436.22 111.45ZM441.17 153V116.625H431.42V153H441.17ZM460.613 116.7V106.35L450.938 108.075V116.7H446.063V124.2H450.938V141.375C450.938 145.525 452.213 148.75 454.763 151.05C457.313 153.35 460.863 154.5 465.413 154.5C466.613 154.5 467.938 154.275 469.388 153.825C470.888 153.375 472.013 152.85 472.763 152.25L469.913 145.2C468.563 145.85 467.238 146.175 465.938 146.175C464.238 146.175 462.913 145.575 461.963 144.375C461.063 143.175 460.613 141.6 460.613 139.65V124.2H470.213L467.213 116.7H460.613ZM485.427 154.725C484.877 156.225 483.777 157.475 482.127 158.475C480.527 159.475 478.452 160.525 475.902 161.625L479.352 169.65C482.702 168.85 485.802 167.375 488.652 165.225C491.502 163.125 493.477 160.65 494.577 157.8L510.852 116.625H500.577L492.627 138.675L484.227 115.275L474.627 118.125L487.152 150.45L485.427 154.725ZM16.05 253V202H6.375V253H16.05ZM36.2871 227.8C38.0871 226.5 39.7371 225.475 41.2371 224.725C42.7371 223.925 44.3371 223.525 46.0371 223.525C47.6871 223.525 48.9621 224.15 49.8621 225.4C50.8121 226.65 51.2871 228.4 51.2871 230.65V253H61.0371V230.2C61.0371 225.55 60.1121 221.925 58.2621 219.325C56.4121 216.725 53.1871 215.425 48.5871 215.425C46.5871 215.425 44.3121 215.875 41.7621 216.775C39.2121 217.675 36.8121 218.925 34.5621 220.525L32.9121 216.625H26.5371V253H36.2871V227.8ZM66.9176 250.15C68.4676 251.35 70.4926 252.275 72.9926 252.925C75.4926 253.575 77.6676 253.9 79.5176 253.9C84.4176 253.9 88.1676 252.925 90.7676 250.975C93.3676 248.975 94.6676 246.15 94.6676 242.5C94.6676 239.6 93.4926 237.15 91.1426 235.15C88.7926 233.15 85.8426 231.5 82.2926 230.2C80.4426 229.55 79.0176 228.975 78.0176 228.475C77.0676 227.925 76.5926 227.325 76.5926 226.675C76.5926 225.825 76.9926 225.1 77.7926 224.5C78.6426 223.85 79.6926 223.525 80.9426 223.525C82.5426 223.525 84.0676 223.725 85.5176 224.125C87.0176 224.525 88.7176 225.15 90.6176 226L93.5426 219.475C91.8426 218.325 89.7676 217.4 87.3176 216.7C84.8676 216 82.7926 215.65 81.0926 215.65C76.7426 215.65 73.2926 216.65 70.7426 218.65C68.1926 220.6 66.9176 223.3 66.9176 226.75C66.9176 229.5 68.0676 231.775 70.3676 233.575C72.6676 235.375 75.5426 236.85 78.9926 238C83.2426 239.3 85.3676 240.925 85.3676 242.875C85.3676 243.875 84.7426 244.65 83.4926 245.2C82.2426 245.75 80.8676 246.025 79.3676 246.025C76.7176 246.025 73.5426 245.2 69.8426 243.55L66.9176 250.15ZM105.458 211.45C107.008 211.45 108.308 210.925 109.358 209.875C110.458 208.825 111.008 207.525 111.008 205.975C111.008 204.425 110.458 203.125 109.358 202.075C108.308 201.025 107.008 200.5 105.458 200.5C103.958 200.5 102.683 201.025 101.633 202.075C100.583 203.125 100.058 204.425 100.058 205.975C100.058 207.525 100.583 208.825 101.633 209.875C102.683 210.925 103.958 211.45 105.458 211.45ZM110.408 253V216.625H100.658V253H110.408ZM152.576 200.05V253H147.476L145.226 249.7C142.026 252.5 138.526 253.9 134.726 253.9C129.076 253.9 124.601 252.2 121.301 248.8C118.051 245.35 116.426 240.7 116.426 234.85C116.426 231.05 117.151 227.7 118.601 224.8C120.101 221.9 122.251 219.65 125.051 218.05C127.851 216.45 131.176 215.65 135.026 215.65C136.226 215.65 137.501 215.875 138.851 216.325C140.201 216.725 141.501 217.3 142.751 218.05V200.875L152.576 200.05ZM126.476 234.85C126.476 238.05 127.226 240.65 128.726 242.65C130.276 244.6 132.401 245.575 135.101 245.575C136.401 245.575 137.651 245.325 138.851 244.825C140.101 244.325 141.401 243.575 142.751 242.575V227.05C141.451 225.95 140.201 225.175 139.001 224.725C137.801 224.225 136.501 223.975 135.101 223.975C132.451 223.975 130.351 225 128.801 227.05C127.251 229.05 126.476 231.65 126.476 234.85ZM194.221 234.7C194.221 231.15 193.621 227.95 192.421 225.1C191.221 222.2 189.371 219.9 186.871 218.2C184.371 216.5 181.296 215.65 177.646 215.65C173.896 215.65 170.646 216.45 167.896 218.05C165.146 219.6 163.021 221.825 161.521 224.725C160.071 227.625 159.346 231 159.346 234.85C159.346 240.8 161.121 245.475 164.671 248.875C168.271 252.225 173.521 253.9 180.421 253.9C183.371 253.9 185.921 253.525 188.071 252.775C190.221 251.975 192.221 250.85 194.071 249.4L191.221 242.35C189.371 243.4 187.646 244.2 186.046 244.75C184.446 245.3 182.646 245.575 180.646 245.575C177.196 245.575 174.621 244.9 172.921 243.55C171.271 242.2 170.196 240.25 169.696 237.7H194.221V234.7ZM169.771 231.175C170.171 228.825 171.046 227.05 172.396 225.85C173.746 224.6 175.421 223.975 177.421 223.975C179.421 223.975 181.046 224.575 182.296 225.775C183.596 226.975 184.496 228.775 184.996 231.175H169.771ZM240.065 253V233.5L257.765 202H247.49L235.115 223.3L223.265 200.95L213.665 203.725L230.315 233.125V253H240.065ZM299.27 234.7C299.27 238.55 298.47 241.925 296.87 244.825C295.27 247.725 292.995 249.975 290.045 251.575C287.145 253.125 283.745 253.9 279.845 253.9C275.945 253.9 272.52 253.125 269.57 251.575C266.67 250.025 264.42 247.825 262.82 244.975C261.22 242.075 260.42 238.7 260.42 234.85C260.42 231 261.22 227.625 262.82 224.725C264.42 221.825 266.67 219.6 269.57 218.05C272.52 216.45 275.945 215.65 279.845 215.65C283.745 215.65 287.145 216.425 290.045 217.975C292.995 219.525 295.27 221.75 296.87 224.65C298.47 227.5 299.27 230.85 299.27 234.7ZM279.845 245.575C282.545 245.575 284.77 244.55 286.52 242.5C288.32 240.45 289.22 237.85 289.22 234.7C289.22 231.55 288.345 228.975 286.595 226.975C284.845 224.975 282.595 223.975 279.845 223.975C277.145 223.975 274.895 225 273.095 227.05C271.345 229.1 270.47 231.7 270.47 234.85C270.47 238 271.345 240.575 273.095 242.575C274.845 244.575 277.095 245.575 279.845 245.575ZM329.747 241.825C327.947 243.125 326.297 244.175 324.797 244.975C323.297 245.725 321.697 246.1 319.997 246.1C318.347 246.1 317.047 245.475 316.097 244.225C315.197 242.975 314.747 241.225 314.747 238.975V216.625H304.997V239.425C304.997 244.075 305.922 247.7 307.772 250.3C309.622 252.9 312.847 254.2 317.447 254.2C319.447 254.2 321.722 253.75 324.272 252.85C326.822 251.95 329.222 250.7 331.472 249.1L333.122 253H339.497V216.625H329.747V241.825Z" fill="#163561"/>
</svg>
